<svg width="17" height="17" viewBox="0 0 17 17" fill="none" xmlns="http://www.w3.org/2000/svg">
<path d="M15.525 6.71905L15.1524 6.06829C15.1357 6.0396 15.1083 6.0187 15.0762 6.01016C15.0441 6.00162 15.0099 6.00613 14.9811 6.0227L14.1841 6.48799L12.9533 3.08953C12.8884 2.88674 12.7606 2.70986 12.5885 2.58441C12.4165 2.45896 12.209 2.39144 11.996 2.3916H5.18499C4.63954 2.3916 4.15539 2.74371 3.9872 3.26401L2.81456 6.48956L2.01603 6.02427C1.98724 6.0077 1.95306 6.00319 1.92096 6.01173C1.88886 6.02027 1.86144 6.04117 1.84469 6.06986L1.47215 6.71905C1.43757 6.77879 1.458 6.85424 1.51773 6.88882L2.46716 7.44213L2.23924 8.07089C2.22038 8.12119 2.21094 8.17464 2.21094 8.22808V13.7015C2.21094 13.9482 2.39643 14.1479 2.62436 14.1479H3.68696C3.88031 14.1479 4.0485 14.0017 4.08937 13.7973L4.21041 13.2047H12.7867L12.9078 13.7973C12.9502 14.0017 13.1168 14.1479 13.3102 14.1479H14.3728C14.6007 14.1479 14.7862 13.9482 14.7862 13.7015V8.22808C14.7862 8.17464 14.7767 8.12119 14.7579 8.07089L14.53 7.44213L15.4778 6.88882C15.5064 6.87234 15.5273 6.84533 15.5361 6.81358C15.5449 6.78183 15.5409 6.74789 15.525 6.71905ZM4.60024 9.98233C4.25285 9.98233 3.97148 9.70096 3.97148 9.35357C3.97148 9.00618 4.25285 8.72481 4.60024 8.72481C4.94763 8.72481 5.229 9.00618 5.229 9.35357C5.229 9.70096 4.94763 9.98233 4.60024 9.98233ZM10.6992 11.1613C10.6992 11.2304 10.6426 11.287 10.5735 11.287H6.42365C6.35448 11.287 6.2979 11.2304 6.2979 11.1613V9.84086C6.2979 9.77169 6.35448 9.71511 6.42365 9.71511H7.05241C7.12157 9.71511 7.17816 9.77169 7.17816 9.84086V10.4067H9.81896V9.84086C9.81896 9.77169 9.87555 9.71511 9.94471 9.71511H10.5735C10.6426 9.71511 10.6992 9.77169 10.6992 9.84086V11.1613ZM12.3969 9.98233C12.0495 9.98233 11.7681 9.70096 11.7681 9.35357C11.7681 9.00618 12.0495 8.72481 12.3969 8.72481C12.7443 8.72481 13.0256 9.00618 13.0256 9.35357C13.0256 9.70096 12.7443 9.98233 12.3969 9.98233ZM3.9086 6.79136L5.05138 3.64913L5.05924 3.62869L5.06552 3.60826C5.08281 3.55638 5.12997 3.5218 5.18499 3.5218H11.9065L13.0917 6.79136H3.9086Z" fill="#0061E0"/>
</svg>
