<svg width="17" height="13" viewBox="0 0 17 13" fill="none" xmlns="http://www.w3.org/2000/svg">
<path d="M4.61911 6.48631C5.7285 6.48631 6.63115 5.358 6.63115 3.97126C6.63115 2.58453 5.7285 1.45621 4.61911 1.45621C3.50972 1.45621 2.60707 2.58453 2.60707 3.97126C2.60707 5.358 3.50972 6.48631 4.61911 6.48631ZM13.4721 2.46223H7.83837C7.61604 2.46223 7.43596 2.68733 7.43596 2.96524V7.49233H1.80226V0.953205C1.80226 0.675292 1.62218 0.450195 1.39985 0.450195H0.595035C0.372704 0.450195 0.192627 0.675292 0.192627 0.953205V12.0194C0.192627 12.2973 0.372704 12.5224 0.595035 12.5224H1.39985C1.62218 12.5224 1.80226 12.2973 1.80226 12.0194V10.5104H14.6793V12.0194C14.6793 12.2973 14.8594 12.5224 15.0817 12.5224H15.8865C16.1089 12.5224 16.2889 12.2973 16.2889 12.0194V5.9833C16.2889 4.03854 15.0279 2.46223 13.4721 2.46223Z" fill="#0061E0"/>
</svg>
