<svg width="18" height="18" viewBox="0 0 18 18" fill="none" xmlns="http://www.w3.org/2000/svg">
<path d="M9.0017 2.17578C5.07244 2.17578 1.87573 5.37249 1.87573 9.30175C1.87573 13.231 5.07244 16.4277 9.0017 16.4277C12.931 16.4277 16.1277 13.231 16.1277 9.30175C16.1277 5.37249 12.931 2.17578 9.0017 2.17578ZM9.0017 15.0025C5.85844 15.0025 3.30093 12.445 3.30093 9.30175C3.30093 6.15848 5.85844 3.60097 9.0017 3.60097C12.145 3.60097 14.7025 6.15848 14.7025 9.30175C14.7025 12.445 12.145 15.0025 9.0017 15.0025Z" fill="#0061E0"/>
<path d="M9.7145 5.73828H8.28931V9.59628L10.6359 11.9429L11.6435 10.9352L9.7145 9.00625V5.73828Z" fill="#0061E0"/>
</svg>
