<svg width="15" height="13" viewBox="0 0 15 13" fill="none" xmlns="http://www.w3.org/2000/svg">
<path d="M14.525 4.71905L14.1524 4.06829C14.1357 4.0396 14.1083 4.0187 14.0762 4.01016C14.0441 4.00162 14.0099 4.00613 13.9811 4.0227L13.1841 4.48799L11.9533 1.08953C11.8884 0.886743 11.7606 0.709856 11.5885 0.584408C11.4165 0.45896 11.209 0.391442 10.9961 0.391602H4.18499C3.63954 0.391602 3.15539 0.743708 2.9872 1.26401L1.81456 4.48956L1.01603 4.02427C0.987239 4.0077 0.953061 4.00319 0.920959 4.01173C0.888857 4.02027 0.861438 4.04117 0.844691 4.06986L0.472149 4.71905C0.437567 4.77879 0.458002 4.85424 0.517735 4.88882L1.46716 5.44213L1.23924 6.07089C1.22038 6.12119 1.21094 6.17464 1.21094 6.22808V11.7015C1.21094 11.9482 1.39643 12.1479 1.62436 12.1479H2.68696C2.88031 12.1479 3.0485 12.0017 3.08937 11.7973L3.21041 11.2047H11.7867L11.9078 11.7973C11.9502 12.0017 12.1168 12.1479 12.3102 12.1479H13.3728C13.6007 12.1479 13.7862 11.9482 13.7862 11.7015V6.22808C13.7862 6.17464 13.7768 6.12119 13.7579 6.07089L13.53 5.44213L14.4778 4.88882C14.5064 4.87234 14.5273 4.84533 14.5361 4.81358C14.5449 4.78183 14.5409 4.74789 14.525 4.71905V4.71905ZM3.60024 7.98233C3.25285 7.98233 2.97148 7.70096 2.97148 7.35357C2.97148 7.00618 3.25285 6.72481 3.60024 6.72481C3.94763 6.72481 4.229 7.00618 4.229 7.35357C4.229 7.70096 3.94763 7.98233 3.60024 7.98233ZM9.69923 9.16126C9.69923 9.23042 9.64264 9.28701 9.57348 9.28701H5.42365C5.35449 9.28701 5.2979 9.23042 5.2979 9.16126V7.84086C5.2979 7.77169 5.35449 7.71511 5.42365 7.71511H6.05241C6.12158 7.71511 6.17816 7.77169 6.17816 7.84086V8.40674H8.81896V7.84086C8.81896 7.77169 8.87555 7.71511 8.94472 7.71511H9.57348C9.64264 7.71511 9.69923 7.77169 9.69923 7.84086V9.16126ZM11.3969 7.98233C11.0495 7.98233 10.7681 7.70096 10.7681 7.35357C10.7681 7.00618 11.0495 6.72481 11.3969 6.72481C11.7443 6.72481 12.0256 7.00618 12.0256 7.35357C12.0256 7.70096 11.7443 7.98233 11.3969 7.98233ZM2.9086 4.79136L4.05138 1.64913L4.05924 1.62869L4.06552 1.60826C4.08281 1.55638 4.12997 1.5218 4.18499 1.5218H10.9065L12.0917 4.79136H2.9086Z" fill="#0061E0"/>
</svg>
