<svg width="18" height="18" viewBox="0 0 18 18" fill="none" xmlns="http://www.w3.org/2000/svg">
<path d="M9.24696 15.5266C8.34149 14.7542 7.5022 13.9075 6.73786 12.9953C5.59084 11.6253 4.22876 9.58503 4.22876 7.64083C4.22826 6.64792 4.52233 5.67717 5.07375 4.85145C5.62517 4.02573 6.40915 3.38214 7.32647 3.00215C8.2438 2.62216 9.25323 2.52284 10.227 2.71675C11.2008 2.91067 12.0952 3.38912 12.797 4.09153C13.2642 4.55669 13.6346 5.10989 13.8866 5.71913C14.1386 6.32837 14.2673 6.98154 14.2652 7.64083C14.2652 9.58503 12.9031 11.6253 11.7561 12.9953C10.9917 13.9075 10.1524 14.7542 9.24696 15.5266ZM9.24696 5.49018C8.67657 5.49018 8.12954 5.71676 7.72622 6.12009C7.32289 6.52342 7.0963 7.07044 7.0963 7.64083C7.0963 8.21122 7.32289 8.75825 7.72622 9.16158C8.12954 9.56491 8.67657 9.79149 9.24696 9.79149C9.81735 9.79149 10.3644 9.56491 10.7677 9.16158C11.171 8.75825 11.3976 8.21122 11.3976 7.64083C11.3976 7.07044 11.171 6.52342 10.7677 6.12009C10.3644 5.71676 9.81735 5.49018 9.24696 5.49018Z" fill="#0061E0"/>
</svg>
