<svg width="17" height="17" viewBox="0 0 17 17" fill="none" xmlns="http://www.w3.org/2000/svg">
<path d="M2.7076 7.26346C2.57419 7.26346 2.44625 7.21047 2.35192 7.11614C2.25759 7.0218 2.20459 6.89386 2.20459 6.76045V2.73738C2.20459 2.60398 2.25759 2.47604 2.35192 2.3817C2.44625 2.28737 2.57419 2.23438 2.7076 2.23438H6.73167C6.86508 2.23438 6.99302 2.28737 7.08736 2.3817C7.18169 2.47604 7.23468 2.60398 7.23468 2.73738V6.76045C7.23468 6.89386 7.18169 7.0218 7.08736 7.11614C6.99302 7.21047 6.86508 7.26346 6.73167 7.26346H2.7076ZM9.74973 7.26346C9.61632 7.26346 9.48838 7.21047 9.39405 7.11614C9.29972 7.0218 9.24672 6.89386 9.24672 6.76045V2.73738C9.24672 2.60398 9.29972 2.47604 9.39405 2.3817C9.48838 2.28737 9.61632 2.23438 9.74973 2.23438H13.7728C13.9062 2.23438 14.0342 2.28737 14.1285 2.3817C14.2228 2.47604 14.2758 2.60398 14.2758 2.73738V6.76045C14.2758 6.89386 14.2228 7.0218 14.1285 7.11614C14.0342 7.21047 13.9062 7.26346 13.7728 7.26346H9.74973ZM2.7076 14.3056C2.57419 14.3056 2.44625 14.2526 2.35192 14.1583C2.25759 14.0639 2.20459 13.936 2.20459 13.8026V9.77851C2.20459 9.6451 2.25759 9.51716 2.35192 9.42283C2.44625 9.3285 2.57419 9.2755 2.7076 9.2755H6.73167C6.86508 9.2755 6.99302 9.3285 7.08736 9.42283C7.18169 9.51716 7.23468 9.6451 7.23468 9.77851V13.8026C7.23468 13.936 7.18169 14.0639 7.08736 14.1583C6.99302 14.2526 6.86508 14.3056 6.73167 14.3056H2.7076ZM9.74973 14.3056C9.61632 14.3056 9.48838 14.2526 9.39405 14.1583C9.29972 14.0639 9.24672 13.936 9.24672 13.8026V9.77851C9.24672 9.6451 9.29972 9.51716 9.39405 9.42283C9.48838 9.3285 9.61632 9.2755 9.74973 9.2755H13.7728C13.9062 9.2755 14.0342 9.3285 14.1285 9.42283C14.2228 9.51716 14.2758 9.6451 14.2758 9.77851V13.8026C14.2758 13.936 14.2228 14.0639 14.1285 14.1583C14.0342 14.2526 13.9062 14.3056 13.7728 14.3056H9.74973Z" fill="#0061E0"/>
</svg>
