<svg width="17" height="17" viewBox="0 0 17 17" fill="none" xmlns="http://www.w3.org/2000/svg">
<g clip-path="url(#clip0_125_107)">
<path d="M4.61911 8.48631C5.7285 8.48631 6.63115 7.358 6.63115 5.97126C6.63115 4.58453 5.7285 3.45621 4.61911 3.45621C3.50972 3.45621 2.60707 4.58453 2.60707 5.97126C2.60707 7.358 3.50972 8.48631 4.61911 8.48631ZM13.4721 4.46223H7.83837C7.61604 4.46223 7.43596 4.68733 7.43596 4.96524V9.49233H1.80226V2.9532C1.80226 2.67529 1.62218 2.4502 1.39985 2.4502H0.595035C0.372704 2.4502 0.192627 2.67529 0.192627 2.9532V14.0194C0.192627 14.2973 0.372704 14.5224 0.595035 14.5224H1.39985C1.62218 14.5224 1.80226 14.2973 1.80226 14.0194V12.5104H14.6793V14.0194C14.6793 14.2973 14.8594 14.5224 15.0817 14.5224H15.8865C16.1089 14.5224 16.2889 14.2973 16.2889 14.0194V7.9833C16.2889 6.03854 15.0279 4.46223 13.4721 4.46223Z" fill="#0061E0"/>
</g>
<defs>
<clipPath id="clip0_125_107">
<rect width="16.0963" height="16.0963" fill="white" transform="translate(0.192627 0.437988)"/>
</clipPath>
</defs>
</svg>
