<svg width="17" height="17" viewBox="0 0 17 17" fill="none" xmlns="http://www.w3.org/2000/svg">
<g clip-path="url(#clip0_125_111)">
<path d="M1.45646 12.5099C1.45732 12.9323 1.54739 13.3497 1.72075 13.7348C1.89412 14.12 2.14688 14.4642 2.46248 14.7448V16.031C2.46248 16.1644 2.51547 16.2923 2.60981 16.3867C2.70414 16.481 2.83208 16.534 2.96549 16.534H3.97151C4.10491 16.534 4.23285 16.481 4.32719 16.3867C4.42152 16.2923 4.47451 16.1644 4.47451 16.031V15.528H12.5227V16.031C12.5227 16.1644 12.5757 16.2923 12.67 16.3867C12.7643 16.481 12.8923 16.534 13.0257 16.534H14.0317C14.1651 16.534 14.293 16.481 14.3874 16.3867C14.4817 16.2923 14.5347 16.1644 14.5347 16.031V14.7448C14.8503 14.4642 15.1031 14.12 15.2764 13.7348C15.4498 13.3497 15.5399 12.9323 15.5407 12.5099V11.0009H1.45646V12.5099ZM16.0437 8.48583H2.96549V2.61477C2.96577 2.48275 3.00515 2.35377 3.07865 2.24411C3.15215 2.13444 3.25648 2.049 3.37849 1.99855C3.50049 1.94811 3.6347 1.93493 3.76418 1.96067C3.89367 1.98641 4.01263 2.04993 4.10606 2.1432L4.71187 2.74869C4.29909 3.68806 4.47263 4.607 4.98287 5.25525L4.97752 5.2606C4.88355 5.35488 4.83078 5.48257 4.83078 5.61569C4.83078 5.74881 4.88355 5.8765 4.97752 5.97078L5.33309 6.32635C5.3798 6.37307 5.43526 6.41013 5.49629 6.43542C5.55733 6.4607 5.62275 6.47372 5.68881 6.47372C5.75488 6.47372 5.8203 6.4607 5.88133 6.43542C5.94237 6.41013 5.99782 6.37307 6.04453 6.32635L9.35716 3.01372C9.40389 2.96701 9.44095 2.91155 9.46623 2.85052C9.49152 2.78948 9.50453 2.72406 9.50453 2.658C9.50453 2.59193 9.49152 2.52651 9.46623 2.46548C9.44095 2.40444 9.40389 2.34898 9.35716 2.30227L9.0016 1.94671C8.90728 1.85245 8.77938 1.7995 8.64604 1.7995C8.51269 1.7995 8.38479 1.85245 8.29047 1.94671L8.28513 1.95205C7.63687 1.44181 6.71857 1.26827 5.77857 1.68106L5.17307 1.07525C4.8686 0.770738 4.48066 0.563361 4.05832 0.479343C3.63599 0.395325 3.19822 0.438439 2.80039 0.603232C2.40255 0.768025 2.06253 1.0471 1.82331 1.40515C1.58409 1.7632 1.45642 2.18415 1.45646 2.61477V8.48583H0.953449C0.820042 8.48583 0.6921 8.53883 0.597768 8.63316C0.503435 8.72749 0.450439 8.85543 0.450439 8.98884L0.450439 9.49185C0.450439 9.62526 0.503435 9.7532 0.597768 9.84753C0.6921 9.94186 0.820042 9.99486 0.953449 9.99486H16.0437C16.1771 9.99486 16.3051 9.94186 16.3994 9.84753C16.4937 9.7532 16.5467 9.62526 16.5467 9.49185V8.98884C16.5467 8.85543 16.4937 8.72749 16.3994 8.63316C16.3051 8.53883 16.1771 8.48583 16.0437 8.48583Z" fill="#0061E0"/>
</g>
<defs>
<clipPath id="clip0_125_111">
<rect width="16.0963" height="16.0963" fill="white" transform="translate(0.450439 0.437988)"/>
</clipPath>
</defs>
</svg>
