<svg width="32" height="32" viewBox="0 0 32 32" fill="none" xmlns="http://www.w3.org/2000/svg">
<circle cx="15.9615" cy="15.9615" r="15.9615" fill="#0061E0"/>
<path d="M16.6281 24.9182C14.3717 24.9182 14.1057 24.9063 13.2252 24.8677C12.5385 24.8452 11.8608 24.7056 11.2211 24.455C10.6736 24.2419 10.1765 23.9174 9.7612 23.502C9.34592 23.0865 9.02156 22.5893 8.80873 22.0417C8.56778 21.3997 8.43782 20.7214 8.42441 20.0358C8.37305 19.1571 8.37305 18.869 8.37305 16.6301C8.37305 14.3673 8.38497 14.1031 8.42441 13.2272C8.43811 12.5425 8.56807 11.8651 8.80873 11.2239C9.02132 10.6757 9.34589 10.1779 9.76173 9.76221C10.1776 9.34653 10.6755 9.02214 11.2238 8.80977C11.8646 8.5678 12.5422 8.4375 13.227 8.42453C14.103 8.375 14.391 8.375 16.6281 8.375C18.9029 8.375 19.1643 8.38692 20.0311 8.42453C20.7171 8.43737 21.3977 8.56762 22.0398 8.80977C22.5879 9.02239 23.0858 9.34686 23.5016 9.76251C23.9174 10.1782 24.242 10.6759 24.4549 11.2239C24.6998 11.8752 24.8309 12.5631 24.841 13.2574C24.8924 14.1361 24.8924 14.4232 24.8924 16.6613C24.8924 18.8993 24.8795 19.1928 24.841 20.0614C24.8273 20.7477 24.697 21.4267 24.4558 22.0693C24.2424 22.6172 23.9175 23.1147 23.5015 23.5303C23.0856 23.9459 22.5878 24.2705 22.0398 24.4834C21.3977 24.7237 20.7199 24.854 20.0347 24.8677C19.1588 24.9182 18.8717 24.9182 16.6281 24.9182ZM16.5969 9.82698C14.3534 9.82698 14.1204 9.83798 13.2445 9.87743C12.7213 9.88427 12.2032 9.98075 11.7127 10.1627C11.3549 10.2998 11.0298 10.5104 10.7584 10.7809C10.487 11.0513 10.2753 11.3757 10.1369 11.733C9.95344 12.2283 9.85713 12.752 9.85162 13.2804C9.80301 14.1692 9.80301 14.4021 9.80301 16.6301C9.80301 18.8314 9.81127 19.0984 9.85162 19.9816C9.85988 20.5045 9.95619 21.0227 10.1369 21.5134C10.4176 22.2353 10.9899 22.8058 11.7136 23.0828C12.2035 23.2659 12.7215 23.3624 13.2445 23.3681C14.1323 23.4194 14.3662 23.4194 16.5969 23.4194C18.8469 23.4194 19.0799 23.4084 19.9485 23.3681C20.4717 23.3617 20.9899 23.2652 21.4803 23.0828C21.8362 22.9446 22.1594 22.7339 22.4294 22.464C22.6994 22.1942 22.9104 21.8711 23.0488 21.5153C23.2322 21.02 23.3285 20.4953 23.334 19.967H23.3441C23.3835 19.0901 23.3835 18.8562 23.3835 16.6154C23.3835 14.3746 23.3735 14.1389 23.334 13.2629C23.3257 12.7405 23.2293 12.2233 23.0488 11.733C22.9107 11.3767 22.6999 11.053 22.4299 10.7827C22.1598 10.5123 21.8364 10.3012 21.4803 10.1627C20.99 9.97986 20.4717 9.88335 19.9485 9.87743C19.0615 9.82698 18.8295 9.82698 16.5969 9.82698ZM16.6281 20.8668C15.7894 20.8673 14.9693 20.6191 14.2717 20.1535C13.574 19.688 13.0301 19.026 12.7087 18.2513C12.3873 17.4765 12.3029 16.6239 12.4661 15.8012C12.6293 14.9785 13.0329 14.2227 13.6257 13.6293C14.2185 13.036 14.974 12.6318 15.7966 12.4678C16.6191 12.3039 17.4718 12.3876 18.2468 12.7083C19.0218 13.029 19.6843 13.5724 20.1505 14.2696C20.6166 14.9669 20.8656 15.7868 20.8657 16.6255C20.8643 17.7493 20.4175 18.8267 19.6232 19.6216C18.8289 20.4166 17.7519 20.8644 16.6281 20.8668ZM16.6281 13.872C16.0839 13.872 15.5519 14.0334 15.0994 14.3357C14.6469 14.6381 14.2942 15.0678 14.0859 15.5706C13.8776 16.0734 13.8231 16.6267 13.9293 17.1605C14.0355 17.6943 14.2976 18.1846 14.6824 18.5694C15.0672 18.9542 15.5575 19.2163 16.0913 19.3225C16.6251 19.4287 17.1784 19.3742 17.6812 19.1659C18.184 18.9576 18.6137 18.6049 18.9161 18.1524C19.2184 17.6999 19.3798 17.1679 19.3798 16.6237C19.3781 15.8944 19.0877 15.1955 18.572 14.6798C18.0563 14.1641 17.3574 13.8737 16.6281 13.872ZM21.0308 13.218C20.901 13.2175 20.7725 13.1914 20.6527 13.1413C20.533 13.0912 20.4242 13.0179 20.3327 12.9258C20.148 12.7397 20.0448 12.4878 20.0457 12.2255C20.0467 11.9633 20.1518 11.7122 20.3379 11.5274C20.5241 11.3427 20.7759 11.2395 21.0382 11.2404C21.3004 11.2414 21.5515 11.3465 21.7363 11.5326C21.921 11.7188 22.0243 11.9706 22.0233 12.2329C22.0223 12.4951 21.9172 12.7462 21.7311 12.931C21.545 13.1157 21.2931 13.219 21.0308 13.218Z" fill="white"/>
</svg>
