<svg width="48" height="44" viewBox="0 0 48 44" fill="none" xmlns="http://www.w3.org/2000/svg">
<path fill-rule="evenodd" clip-rule="evenodd" d="M16.3705 4.22311C11.5713 7.36749 9.8982 8.50972 9.82041 8.69477C9.62532 9.15871 10.1144 9.71702 10.5867 9.5694C10.687 9.53806 13.5218 7.71486 16.8864 5.51794C20.2511 3.32093 23.0588 1.49052 23.1259 1.45031C23.3014 1.34522 44.8484 15.4581 44.9945 15.774C45.1464 16.1023 45.1288 16.4754 44.9495 16.7274C44.7543 17.002 44.2596 17.2071 43.9679 17.1345C43.8435 17.1036 39.2335 14.1265 33.7233 10.5187C25.235 4.96102 23.6438 3.95236 23.3061 3.91483C22.9117 3.87102 22.807 3.93646 12.9152 10.4102C7.4193 14.007 2.79603 17.0024 2.6412 17.0667C2.25356 17.2277 1.88506 17.137 1.60796 16.8127C1.34221 16.5015 1.29736 15.9681 1.51337 15.6871C1.58656 15.5919 2.94702 14.6559 4.53671 13.6073C7.64826 11.5545 7.76209 11.4506 7.46781 10.9316C7.35981 10.7412 7.24345 10.6769 6.96597 10.6543C6.63398 10.6272 6.38418 10.7692 3.87507 12.4106C2.37367 13.3927 0.982628 14.339 0.783881 14.5135C-0.807693 15.9103 0.186137 18.4963 2.31277 18.4916C2.95518 18.4902 3.32762 18.3265 4.59752 17.4872C5.14384 17.1261 5.61331 16.8307 5.6409 16.8307C5.66839 16.8307 5.69091 22.0302 5.69091 28.3851V39.9396H4.30043C2.62731 39.9396 2.13673 40.0539 1.63536 40.5607C0.827421 41.3775 0.779564 42.4881 1.51581 43.3354C2.15691 44.0732 0.160707 44.0139 23.3946 43.9857L44.148 43.9605L44.5549 43.6827C45.0737 43.3284 45.4787 42.5793 45.4758 41.9797C45.4716 41.1216 44.7779 40.2521 43.9295 40.0416C43.7032 39.9855 42.9034 39.9396 42.152 39.9396H40.786V38.1958C40.786 36.5716 40.7727 36.4353 40.5915 36.2084C40.3567 35.9143 39.9666 35.8867 39.6469 36.1414C39.4297 36.3144 39.4248 36.3534 39.3964 38.1288L39.3673 39.9396H36.1356H32.9037V37.4438V34.9481H39.7568C45.3005 34.9481 46.6679 34.9242 46.9134 34.8232C47.3112 34.6595 47.7892 34.1151 47.9185 33.6786C47.9903 33.4363 48.013 31.406 47.9931 26.9986L47.9646 20.6668L47.7419 20.3139C47.6195 20.1198 47.3481 19.8494 47.1389 19.7131L46.7585 19.4651L39.8441 19.4397L32.9297 19.4143L32.8829 18.3767C32.8254 17.1023 32.6132 16.5391 31.9855 15.9949C31.5518 15.6188 30.8614 15.3517 30.3232 15.3517C29.7849 15.3517 29.0946 15.6188 28.6609 15.9949C28.0332 16.5391 27.821 17.1023 27.7635 18.3767L27.7167 19.4143L20.8023 19.4397L13.8879 19.4651L13.5075 19.7131C13.2983 19.8494 13.0269 20.1198 12.9045 20.3139L12.6818 20.6668L12.6533 26.9986C12.6334 31.406 12.6561 33.4363 12.7279 33.6786C12.8369 34.0468 13.2777 34.6023 13.6096 34.7898C13.7299 34.8577 14.3801 34.9201 15.2623 34.9481L16.7168 34.9943L16.7417 37.4669L16.7668 39.9396H11.9326H7.09847V27.8878V15.8361L15.1673 10.5602L23.2363 5.28445L31.3074 10.5669L39.3785 15.8493V16.8441C39.3785 17.3911 39.4261 17.9419 39.4845 18.0679C39.6308 18.3842 40.0264 18.5367 40.3381 18.3968C40.6561 18.2541 40.786 17.946 40.786 17.3347C40.786 17.0575 40.8062 16.8307 40.8308 16.8307C40.8554 16.8307 41.3804 17.1593 41.9976 17.561C43.2997 18.4085 43.6111 18.5294 44.3546 18.4764C45.7981 18.3736 46.7831 16.9709 46.3772 15.5958C46.2922 15.3076 46.0886 14.9232 45.9211 14.7347C45.7436 14.5348 41.1049 11.4371 34.6866 7.23226C24.3466 0.458297 23.7292 0.0685873 23.2854 0.035218L22.8162 0L16.3705 4.22311ZM22.4878 8.33594C20.0718 8.74691 18.448 11.2095 19.062 13.5314C19.4452 14.9807 20.4695 16.076 21.8927 16.5584C22.5707 16.7882 23.8579 16.8026 24.4987 16.5875C26.1159 16.0447 27.2323 14.7519 27.4878 13.126C27.8072 11.0932 26.4737 9.03438 24.4671 8.46248C23.8418 8.28427 23.0785 8.23546 22.4878 8.33594ZM22.5816 10.7761V11.8392H21.4543H20.327L20.4734 11.4925C20.7888 10.7455 21.2559 10.2583 22.0162 9.88359C22.5802 9.60554 22.5816 9.60776 22.5816 10.7761ZM24.5318 9.93785C25.2436 10.2991 25.8641 10.9901 26.0112 11.585L26.074 11.8392H24.9846H23.8953V10.7761C23.8953 10.1063 23.9312 9.71313 23.9923 9.71313C24.0457 9.71313 24.2884 9.81426 24.5318 9.93785ZM22.5816 14.2949C22.5816 15.3605 22.5809 15.3639 22.3705 15.3022C21.525 15.0537 20.4234 13.9328 20.4234 13.3211C20.4234 13.261 20.8232 13.2257 21.5025 13.2257H22.5816V14.2949ZM26.0536 13.3068C26.0536 13.7455 25.3235 14.6721 24.7008 15.0237C23.8745 15.4903 23.8953 15.509 23.8953 14.2949V13.2257H24.9745C25.568 13.2257 26.0536 13.2622 26.0536 13.3068ZM30.9693 16.9312C31.3937 17.2601 31.4962 17.5723 31.4962 18.5361V19.4189H30.3232H29.1502V18.5361C29.1502 17.5723 29.2527 17.2601 29.6771 16.9312C29.8406 16.8046 30.0627 16.7382 30.3232 16.7382C30.5837 16.7382 30.8058 16.8046 30.9693 16.9312ZM46.4913 20.9163C46.5766 21.0004 46.6039 22.5212 46.6039 27.1954C46.6039 32.6795 46.5876 33.3795 46.4565 33.5087C46.3236 33.6396 44.7307 33.654 30.3232 33.654C15.9157 33.654 14.3228 33.6396 14.1898 33.5087C14.0588 33.3795 14.0424 32.6795 14.0424 27.1954C14.0424 22.5212 14.0697 21.0004 14.155 20.9163C14.3188 20.755 46.3276 20.755 46.4913 20.9163ZM19.4043 23.7504C19.2068 23.945 19.2035 24.0008 19.2035 27.1835C19.2035 30.2955 19.2106 30.4257 19.3911 30.6036C19.6157 30.8248 20.0213 30.8428 20.3086 30.6445C20.5078 30.5072 20.5172 30.4404 20.5172 29.1656V27.8305H20.9305H21.3437L22.1269 29.2864C22.8824 30.6908 22.9212 30.7433 23.2252 30.772C23.5859 30.8059 23.9892 30.5072 23.9892 30.206C23.9892 30.047 23.343 28.7725 22.8484 27.9558L22.6723 27.6651L23.0737 27.4333C24.1018 26.8398 24.3007 25.087 23.4366 24.2358C22.9667 23.773 22.56 23.669 20.9761 23.6066C19.6626 23.5548 19.5967 23.5608 19.4043 23.7504ZM25.3967 23.6981L25.1621 23.8149L25.1374 27.1861C25.1147 30.2734 25.126 30.5671 25.2726 30.6729C25.3885 30.7566 25.9697 30.7885 27.3786 30.7885C29.0225 30.7885 29.3474 30.7659 29.472 30.6432C29.6411 30.4766 29.664 30.1189 29.5223 29.858C29.4325 29.6927 29.3121 29.6792 27.9271 29.6792H26.4289V28.7087V27.7381H27.1587C28.006 27.7381 28.3057 27.5967 28.3057 27.1967C28.3057 26.7891 28.1557 26.7213 27.2547 26.7213H26.4289V25.7507V24.7801H27.8365C29.119 24.7801 29.2608 24.7637 29.4317 24.5953C29.535 24.4936 29.6194 24.3064 29.6194 24.1793C29.6194 24.0522 29.535 23.865 29.4317 23.7633C29.2569 23.5911 29.12 23.5786 27.4377 23.5799C26.1702 23.5808 25.5613 23.6161 25.3967 23.6981ZM30.988 23.6817C30.8376 23.7223 30.68 23.8093 30.6376 23.875C30.5953 23.9406 30.56 25.4399 30.5592 27.2066C30.5579 30.2964 30.5649 30.4257 30.7455 30.6036C30.9769 30.8316 31.4094 30.8423 31.6734 30.6267C31.8621 30.4726 31.8725 30.3719 31.895 28.4934L31.9184 26.5218L33.0312 28.5688C34.1807 30.6834 34.2661 30.7885 34.8335 30.7885C34.9591 30.7885 35.1464 30.7053 35.2496 30.6036C35.4301 30.4258 35.4373 30.2955 35.4373 27.2011C35.4373 24.7324 35.4094 23.9459 35.3172 23.8217C35.174 23.6289 34.4771 23.5895 34.2657 23.7623C34.153 23.8544 34.1225 24.2473 34.1019 25.8761L34.0767 27.8767L33.0974 26.0122C32.5588 24.9866 32.0519 24.0612 31.971 23.9555C31.7835 23.7107 31.3395 23.587 30.988 23.6817ZM36.6572 23.6459C36.4449 23.7255 36.3787 23.8672 36.3771 24.2454C36.3752 24.6941 36.5476 24.7801 37.4486 24.7801H38.1586V27.5994C38.1586 30.2955 38.1668 30.4268 38.3463 30.6036C38.5503 30.8045 38.9985 30.8469 39.2908 30.6928C39.4643 30.6013 39.4723 30.4696 39.4723 27.6886V24.7801H40.2554C40.8949 24.7801 41.067 24.7492 41.1938 24.6111C41.4044 24.3818 41.3894 23.988 41.1614 23.7633C40.9845 23.5891 40.854 23.5789 38.8858 23.5858C37.7375 23.5898 36.7346 23.6168 36.6572 23.6459ZM22.3309 24.969C22.6081 25.1838 22.7268 25.6368 22.6339 26.1249C22.5393 26.6215 22.1531 26.813 21.2444 26.8134L20.5172 26.8137V25.7969V24.7801H21.3021C21.9506 24.7801 22.1295 24.813 22.3309 24.969ZM27.7427 37.4438V39.9396H22.91H18.0774V37.5055C18.0774 36.1666 18.1056 35.0435 18.14 35.0097C18.1744 34.9758 20.349 34.9481 22.9726 34.9481H27.7427V37.4438ZM31.4737 38.8535L31.4982 42.7127H30.3242H29.1502V38.892C29.1502 36.7906 29.1797 35.0423 29.2156 35.0069C29.2516 34.9714 29.7688 34.9542 30.3651 34.9684L31.4492 34.9943L31.4737 38.8535ZM27.7427 42.0204V42.7147L15.2722 42.6906C3.15899 42.6671 2.79594 42.6614 2.60414 42.4903C2.34636 42.2605 2.34139 41.7601 2.59428 41.511C2.78008 41.328 2.90704 41.3261 15.2623 41.3261H27.7427V42.0204ZM43.8649 41.5146C44.1357 41.7631 44.1397 42.2524 43.8729 42.4903C43.6842 42.6586 43.4345 42.6675 38.2896 42.6918L32.9037 42.7171V42.0216V41.3261H38.2816C43.5642 41.3261 43.6633 41.3294 43.8649 41.5146Z" fill="#0061E0"/>
</svg>
