<svg width="49" height="59" viewBox="0 0 49 59" fill="none" xmlns="http://www.w3.org/2000/svg">
<path d="M11.7523 28.956V17.0478L24.3882 9.7535C28.6047 12.185 32.8121 14.6164 37.0241 17.0478V35.4891H14.3634H2.62253C2.19348 34.511 1.75522 33.5467 1.4 32.5455C-0.0578114 28.4346 -0.37613 24.0147 0.440428 19.7653C1.32618 15.1332 3.56365 10.7178 7.14358 7.14212C11.9091 2.3807 18.151 0 24.3882 0C30.6346 0 36.8765 2.3807 41.6328 7.14212C46.3938 11.9081 48.7742 18.1506 48.7742 24.3884C48.7742 30.6309 46.3938 36.8778 41.6328 41.6346L24.3882 58.8809L7.14358 41.6393C6.41468 40.9103 5.72268 40.1259 5.09066 39.3093H10.2068L24.3882 53.4966L38.9431 38.9402C42.9568 34.9262 44.9682 29.6527 44.9682 24.3884C44.9682 19.1241 42.9568 13.8551 38.9431 9.83656C34.925 5.81335 29.652 3.80636 24.3882 3.80636C19.1244 3.80636 13.856 5.81797 9.83777 9.83194C6.81143 12.8586 4.92919 16.5773 4.18183 20.4713C3.46215 24.1992 3.78508 28.0794 5.13679 31.6689H33.2135V19.2348C30.2656 17.5324 27.3268 15.8345 24.3882 14.1366L15.5675 19.2348V28.9652H11.7523V28.956Z" fill="white"/>
</svg>
