<svg width="32" height="33" viewBox="0 0 32 33" fill="none" xmlns="http://www.w3.org/2000/svg">
<circle cx="15.9615" cy="16.3619" r="15.9615" fill="#0061E0"/>
<path fill-rule="evenodd" clip-rule="evenodd" d="M14.677 12.7326H17.4625V14.1201C17.8637 13.3221 18.8927 12.6051 20.4385 12.6051C23.4017 12.6051 24.1052 14.1936 24.1052 17.1081V22.5059H21.1052V17.7719C21.1052 16.1121 20.704 15.1761 19.6825 15.1761C18.2657 15.1761 17.677 16.1849 17.677 17.7711V22.5059H14.677V12.7326ZM9.53272 22.3784H12.5327V12.6051H9.53272V22.3784ZM12.9625 9.41836C12.9626 9.66982 12.9127 9.91879 12.8158 10.1508C12.7188 10.3828 12.5767 10.5932 12.3977 10.7699C12.035 11.1303 11.5441 11.3321 11.0327 11.3309C10.5223 11.3305 10.0325 11.1293 9.66922 10.7706C9.49088 10.5934 9.34926 10.3827 9.25248 10.1507C9.1557 9.91864 9.10566 9.66978 9.10522 9.41836C9.10522 8.91061 9.30772 8.42461 9.66997 8.06611C10.0329 7.70698 10.5229 7.50563 11.0335 7.50586C11.545 7.50586 12.0355 7.70761 12.3977 8.06611C12.7592 8.42461 12.9625 8.91061 12.9625 9.41836Z" fill="white"/>
</svg>
