<svg width="189" height="60" viewBox="0 0 189 60" fill="none" xmlns="http://www.w3.org/2000/svg">
<path d="M80.9801 17.5847H85.4455V39.1837H80.9801V30.3049H71.8856V39.1837H67.4202V17.5847H71.8856V26.4037H80.9801V17.5847ZM97.5021 39.4826C95.8748 39.4826 94.4309 39.1688 93.1707 38.541C91.9104 37.9132 90.9181 36.9914 90.1938 35.7757C89.4793 34.56 89.122 33.1301 89.122 31.4858C89.122 29.0245 89.896 27.0813 91.444 25.6563C92.9921 24.2313 95.0115 23.5188 97.5021 23.5188C100.003 23.5188 102.027 24.2313 103.575 25.6563C105.123 27.0813 105.897 29.0245 105.897 31.4858C105.897 33.9571 105.123 35.9103 103.575 37.3451C102.027 38.7702 100.003 39.4826 97.5021 39.4826ZM97.4575 36.0597C98.7078 36.0597 99.715 35.6411 100.479 34.8041C101.253 33.967 101.64 32.8609 101.64 31.4858C101.64 30.1106 101.253 29.0045 100.479 28.1675C99.715 27.3304 98.7078 26.9119 97.4575 26.9119C96.2568 26.9119 95.2744 27.3354 94.5103 28.1824C93.7562 29.0195 93.3791 30.1206 93.3791 31.4858C93.3791 32.851 93.7562 33.9571 94.5103 34.8041C95.2744 35.6411 96.2568 36.0597 97.4575 36.0597ZM119.234 23.8178H123.521V39.1837H119.457L119.353 37.3302C118.222 38.7652 116.599 39.4826 114.486 39.4826C112.65 39.4826 111.241 39.0243 110.258 38.1075C109.276 37.1808 108.785 35.8653 108.785 34.1613V23.8178H113.086V33.2346C113.086 34.1913 113.339 34.8938 113.846 35.3422C114.362 35.7906 115.026 36.0148 115.84 36.0148C116.832 36.0148 117.641 35.7259 118.266 35.1479C118.901 34.56 119.224 33.6084 119.234 32.293V23.8178ZM139.135 23.8178L132.406 35.8653H138.926V39.1837H126.319L133.017 27.1361H126.84V23.8178H139.135ZM144.269 21.5159C143.585 21.5159 143 21.2768 142.513 20.7985C142.027 20.3102 141.784 19.7222 141.784 19.0346C141.784 18.357 142.027 17.779 142.513 17.3007C143.01 16.8124 143.595 16.5684 144.269 16.5684C144.935 16.5684 145.511 16.8124 145.997 17.3007C146.482 17.779 146.726 18.357 146.726 19.0346C146.726 19.7222 146.482 20.3102 145.997 20.7985C145.511 21.2768 144.935 21.5159 144.269 21.5159ZM142.082 39.1837V23.8178H146.398V39.1837H142.082ZM159.868 23.5188C161.705 23.5188 163.114 23.9822 164.096 24.909C165.079 25.8257 165.57 27.1361 165.57 28.8401V39.1837H161.268V29.7669C161.268 28.8003 161.01 28.0928 160.494 27.6444C159.988 27.196 159.333 26.9717 158.53 26.9717C158.063 26.9717 157.636 27.0365 157.249 27.1659C156.863 27.2955 156.505 27.4999 156.177 27.7788C155.851 28.048 155.592 28.4316 155.403 28.9298C155.225 29.4281 155.131 30.021 155.12 30.7085V39.1837H150.834V23.8178H155.12V25.5218C156.252 24.1865 157.835 23.5188 159.868 23.5188ZM180.276 23.8178H184.354V38.0328C184.354 39.4975 184.16 40.7731 183.774 41.8593C183.397 42.9455 182.846 43.8174 182.122 44.4751C181.397 45.1427 180.549 45.636 179.577 45.9549C178.604 46.2737 177.493 46.4332 176.242 46.4332C172.203 46.4332 169.573 44.8438 168.353 41.665L171.911 40.1403C172.347 41.1468 172.898 41.8892 173.563 42.3675C174.228 42.8458 175.067 43.0849 176.079 43.0849C178.728 43.0849 180.052 41.5056 180.052 38.3466V36.553C179.596 37.1808 178.951 37.689 178.117 38.0776C177.294 38.4562 176.391 38.6455 175.409 38.6455C174.465 38.6455 173.568 38.4663 172.714 38.1075C171.871 37.7388 171.132 37.2305 170.496 36.5829C169.861 35.9252 169.355 35.118 168.978 34.1613C168.611 33.2048 168.428 32.1684 168.428 31.0524C168.428 29.9263 168.611 28.8899 168.978 27.9433C169.355 26.9867 169.861 26.1894 170.496 25.5517C171.141 24.914 171.886 24.4157 172.729 24.057C173.583 23.6982 174.486 23.5188 175.438 23.5188C176.491 23.5188 177.433 23.7331 178.266 24.1615C179.11 24.5801 179.745 25.1431 180.172 25.8506L180.276 23.8178ZM173.697 33.9821C174.46 34.7693 175.398 35.1628 176.51 35.1628C177.621 35.1628 178.559 34.7643 179.323 33.967C180.088 33.1699 180.469 32.1982 180.469 31.0524C180.469 29.8964 180.088 28.9198 179.323 28.1226C178.57 27.3255 177.632 26.9268 176.51 26.9268C175.379 26.9268 174.436 27.3205 173.683 28.1077C172.938 28.885 172.566 29.8666 172.566 31.0524C172.566 32.2182 172.942 33.1947 173.697 33.9821Z" fill="white"/>
<path d="M11.7523 28.956V17.0478L24.3882 9.7535C28.6047 12.185 32.8121 14.6164 37.0241 17.0478V35.4891H14.3634H2.62253C2.19348 34.511 1.75522 33.5467 1.4 32.5455C-0.0578114 28.4346 -0.37613 24.0147 0.440428 19.7653C1.32618 15.1332 3.56365 10.7178 7.14358 7.14212C11.9091 2.3807 18.151 0 24.3882 0C30.6346 0 36.8765 2.3807 41.6328 7.14212C46.3938 11.9081 48.7742 18.1506 48.7742 24.3884C48.7742 30.6309 46.3938 36.8778 41.6328 41.6346L24.3882 58.8809L7.14358 41.6393C6.41468 40.9103 5.72268 40.1259 5.09066 39.3093H10.2068L24.3882 53.4966L38.9431 38.9402C42.9568 34.9262 44.9682 29.6527 44.9682 24.3884C44.9682 19.1241 42.9568 13.8551 38.9431 9.83656C34.925 5.81335 29.652 3.80636 24.3882 3.80636C19.1244 3.80636 13.856 5.81797 9.83777 9.83194C6.81143 12.8586 4.92919 16.5773 4.18183 20.4713C3.46215 24.1992 3.78508 28.0794 5.13679 31.6689H33.2135V19.2348C30.2656 17.5324 27.3268 15.8345 24.3882 14.1366L15.5675 19.2348V28.9652H11.7523V28.956Z" fill="white"/>
</svg>
