<svg width="61" height="44" viewBox="0 0 61 44" fill="none" xmlns="http://www.w3.org/2000/svg">
<path fill-rule="evenodd" clip-rule="evenodd" d="M26.5883 5.36451L17.3733 10.722H10.1327C5.77594 10.722 2.63645 10.7703 2.25018 10.8434C1.3809 11.0078 0.739894 11.4864 0.332774 12.2748L0 12.9194V21.3304V29.7415L0.332774 30.386C0.739894 31.1744 1.3809 31.653 2.25018 31.8175C2.6243 31.8882 5.27053 31.9389 8.59469 31.9389H14.2975V37.0622V42.1856H7.39168H0.485876L0.242938 42.4495C-0.201356 42.932 -0.00786361 43.6183 0.643029 43.8686C1.0984 44.0438 59.9042 44.0438 60.3595 43.8686C61.0104 43.6183 61.2039 42.932 60.7596 42.4495C60.5234 42.1929 60.4419 42.1856 57.781 42.1856H55.0453V30.1306C55.0453 23.5003 55.0678 18.0756 55.0954 18.0756C55.123 18.0756 55.6563 18.3739 56.2806 18.7386C57.5794 19.4973 57.9977 19.5664 58.3727 19.084C58.6068 18.7828 58.6197 18.6172 58.6197 15.9028C58.6197 13.3506 58.597 13.0121 58.4111 12.7906C58.2965 12.6541 56.9427 11.8142 55.4027 10.9243C53.8628 10.0345 48.9927 7.21098 44.5804 4.64976C38.505 1.12331 36.4663 -0.00528562 36.1806 1.85932e-05C35.9082 0.00508171 33.2387 1.4981 26.5883 5.36451ZM46.528 7.87195L56.7729 13.8222L56.8061 15.3974L56.8393 16.9728L51.385 13.8085C48.385 12.0681 43.8125 9.41391 41.2237 7.91041C38.4243 6.28455 36.3922 5.17669 36.2095 5.17669C36.0269 5.17669 33.9229 6.32421 31.0156 8.00962L26.1288 10.8426H23.5294C22.0996 10.8426 20.9682 10.8018 21.0149 10.7521C21.1493 10.6092 36.0277 1.94775 36.1624 1.93413C36.2289 1.92738 40.8934 4.59937 46.528 7.87195ZM44.7392 12.0282L53.1985 16.9437V29.5346V42.1254H48.1944H43.1903L43.1597 34.2072L43.1291 26.2891L42.8159 26.04C42.5149 25.8003 42.3621 25.7908 38.8254 25.7908H35.148V19.3551V12.9194L34.8152 12.2748C34.6076 11.873 34.2899 11.4933 33.9714 11.2665C33.4696 10.9093 33.4282 10.9017 31.6532 10.8426L29.846 10.7823L33.0033 8.94726C34.7399 7.93801 36.1875 7.11237 36.2203 7.11237C36.253 7.11249 40.0865 9.32458 44.7392 12.0282ZM33.1178 12.9147C33.3574 13.1748 33.3608 13.2906 33.357 21.3231C33.3528 30.2479 33.3908 29.7939 32.6303 30.0146C32.0894 30.1716 3.05859 30.1716 2.51767 30.0146C1.75716 29.7939 1.79517 30.2479 1.791 21.3231C1.78718 13.2906 1.79052 13.1748 2.03012 12.9147L2.27306 12.6508H17.574H32.8749L33.1178 12.9147ZM6.39633 17.2338C4.47725 17.8166 4.1415 20.7751 5.87162 21.8572C6.33748 22.1487 6.60424 22.218 7.50915 22.2828C8.66332 22.3654 8.81153 22.4501 8.81499 23.0296C8.81845 23.6374 8.53333 23.7414 6.8635 23.7414C6.02877 23.7414 5.24777 23.7946 5.12791 23.8595C4.55863 24.1677 4.66753 25.3391 5.27994 25.4946C5.43983 25.5352 6.31448 25.5507 7.22356 25.529C9.14598 25.483 9.59373 25.3235 10.187 24.4738C10.5106 24.0103 10.5444 23.8725 10.5444 23.0181C10.5444 22.1642 10.5104 22.0258 10.187 21.561C9.65413 20.7955 8.98584 20.4866 7.86337 20.4866C6.91188 20.4866 6.70266 20.3872 6.51202 19.845C6.43208 19.6179 6.60901 19.167 6.83896 19.0116C6.91104 18.9629 7.67036 18.9223 8.52618 18.9212C9.92626 18.9197 10.1087 18.8947 10.3432 18.6736C10.5133 18.5133 10.604 18.2845 10.604 18.0153C10.604 17.7461 10.5133 17.5173 10.3432 17.357C10.1052 17.1326 9.93639 17.112 8.40703 17.1215C7.48568 17.1272 6.58077 17.1777 6.39633 17.2338ZM13.7239 17.3221C13.572 17.4543 13.0052 18.8673 12.2073 21.1034C11.0073 24.4661 10.9427 24.6938 11.0965 25.0185C11.3144 25.4787 11.8276 25.6613 12.2385 25.4252C12.5768 25.2308 12.6647 25.1049 12.9302 24.4346L13.1092 23.9825H14.2829H15.4565L15.6642 24.5551C16.0176 25.5296 16.5733 25.799 17.2005 25.2998C17.399 25.1419 17.5144 24.9321 17.5144 24.7297C17.5144 24.5535 16.9743 22.8894 16.3141 21.0315C15.0687 17.5265 14.8495 17.1112 14.2445 17.1112C14.0916 17.1112 13.8574 17.206 13.7239 17.3221ZM18.1643 17.4071L17.8718 17.7029V21.3304V24.9579L18.1643 25.2537C18.4552 25.5481 18.4691 25.5497 20.829 25.5497C23.0486 25.5497 23.2215 25.5337 23.5152 25.2998C23.9493 24.9543 23.9493 24.3368 23.5152 23.9913C23.2296 23.764 23.0416 23.7414 21.4301 23.7414H19.659V20.6762V17.6109L19.3451 17.3611C18.9287 17.0296 18.5217 17.0455 18.1643 17.4071ZM24.803 17.3901C24.5488 17.664 24.544 17.7368 24.544 21.3473V25.0254L24.8197 25.2876C25.0842 25.5388 25.1933 25.5496 27.4707 25.5458C30.0047 25.5417 30.1473 25.5115 30.3651 24.9319C30.4994 24.5747 30.2723 23.9377 29.9686 23.8198C29.8577 23.7766 28.9939 23.7414 28.049 23.7414H26.3312V23.0292V22.3169L28.1153 22.2758C29.7642 22.2377 29.9191 22.2145 30.1606 21.9701C30.4814 21.6452 30.5022 21.0617 30.2048 20.7292C30.0053 20.5061 29.8404 20.4866 28.1595 20.4866H26.3312V19.703V18.9194L28.0886 18.9156C29.9627 18.9115 30.1555 18.8595 30.3651 18.3016C30.4994 17.9444 30.2723 17.3074 29.9686 17.1895C29.8577 17.1464 28.7084 17.1112 27.4146 17.1112C25.1096 17.1112 25.0569 17.1168 24.803 17.3901ZM14.5795 21.5026C14.6865 21.8294 14.7741 22.1141 14.7741 22.1355C14.7741 22.1568 14.5596 22.1743 14.2975 22.1743C14.0354 22.1743 13.8209 22.1384 13.8209 22.0945C13.8209 21.8394 14.2365 20.7399 14.3039 20.8165C14.3485 20.8672 14.4725 21.1759 14.5795 21.5026ZM41.3435 34.8923V42.1856H36.2203H31.097V37.0622V31.9389H31.6765C33.2876 31.9389 34.2624 31.4567 34.8152 30.386C35.1067 29.8213 35.148 29.6086 35.148 28.6703V27.599H38.2457H41.3435V34.8923ZM19.0633 37.0622V42.1856H17.574H16.0847V37.0622V31.9389H17.574H19.0633V37.0622ZM29.2813 37.0321L29.2503 42.1254L25.0504 42.1571L20.8505 42.1888V37.0638V31.9389H25.0815H29.3124L29.2813 37.0321ZM39.0363 33.5148C38.739 33.7513 38.7223 33.8217 38.7223 34.8409C38.7223 36.086 38.8982 36.3992 39.5975 36.3992C40.189 36.3992 40.4298 36.0582 40.4876 35.1385C40.547 34.194 40.3642 33.5876 39.9643 33.4032C39.5459 33.2103 39.3962 33.2283 39.0363 33.5148Z" fill="#0061E0"/>
</svg>
