<svg width="15" height="14" viewBox="0 0 15 14" fill="none" xmlns="http://www.w3.org/2000/svg">
<path d="M7.14371 0.698145C7.29217 0.407245 7.70783 0.407244 7.85629 0.698144L9.65578 4.22426C9.7139 4.33815 9.82297 4.41739 9.94924 4.43747L13.8589 5.05926C14.1814 5.11056 14.3098 5.50588 14.079 5.73696L11.2816 8.53801C11.1912 8.62848 11.1496 8.75669 11.1695 8.88299L11.7863 12.7934C11.8372 13.116 11.5009 13.3603 11.2098 13.2122L7.68137 11.4173C7.56741 11.3593 7.43259 11.3593 7.31863 11.4173L3.79021 13.2122C3.49912 13.3603 3.16284 13.116 3.21373 12.7934L3.83051 8.88299C3.85043 8.75669 3.80877 8.62848 3.71841 8.53801L0.920953 5.73696C0.690165 5.50588 0.818611 5.11056 1.14115 5.05926L5.05076 4.43747C5.17703 4.41739 5.2861 4.33815 5.34422 4.22426L7.14371 0.698145Z" fill="#FFCE00"/>
</svg>
