<svg width="32" height="32" viewBox="0 0 32 32" fill="none" xmlns="http://www.w3.org/2000/svg">
<circle cx="15.9615" cy="15.9615" r="15.9615" fill="#0061E0"/>
<path d="M24.1238 10.9668C23.5261 11.2246 22.8757 11.4102 22.2058 11.4824C22.9013 11.0692 23.4222 10.4164 23.6707 9.64649C23.018 10.0348 22.303 10.307 21.5574 10.4512C21.2457 10.118 20.8688 9.85262 20.4502 9.67151C20.0315 9.49039 19.58 9.39744 19.1238 9.39845C17.2781 9.39845 15.7937 10.8945 15.7937 12.7305C15.7937 12.9883 15.825 13.2461 15.8757 13.4941C13.1121 13.3496 10.6472 12.0293 9.00855 10.0078C8.70996 10.5178 8.55349 11.0985 8.55542 11.6895C8.55542 12.8457 9.14331 13.8652 10.0398 14.4649C9.51148 14.444 8.99554 14.2988 8.53394 14.041V14.082C8.53394 15.7012 9.67847 17.043 11.2039 17.3516C10.9174 17.426 10.6228 17.464 10.3269 17.4649C10.1101 17.4649 9.90503 17.4434 9.698 17.4141C10.1199 18.7344 11.3484 19.6934 12.8113 19.7246C11.6667 20.6211 10.2332 21.1484 8.67651 21.1484C8.39722 21.1484 8.1394 21.1387 7.87183 21.1074C9.34839 22.0547 11.1003 22.6016 12.9871 22.6016C19.1121 22.6016 22.4636 17.5274 22.4636 13.1231C22.4636 12.9785 22.4636 12.834 22.4539 12.6895C23.1023 12.2149 23.6707 11.627 24.1238 10.9668Z" fill="white"/>
</svg>
