<svg width="13" height="13" viewBox="0 0 13 13" fill="none" xmlns="http://www.w3.org/2000/svg">
<path d="M1.22912 12.9198C1.22912 12.9198 0.217041 12.9198 0.217041 11.9077C0.217041 10.8956 1.22912 7.85942 6.28949 7.85942C11.3499 7.85942 12.3619 10.8956 12.3619 11.9077C12.3619 12.9198 11.3499 12.9198 11.3499 12.9198H1.22912ZM6.28949 6.84735C7.09474 6.84735 7.86702 6.52746 8.43642 5.95806C9.00582 5.38866 9.32571 4.61638 9.32571 3.81112C9.32571 3.00587 9.00582 2.23359 8.43642 1.66419C7.86702 1.09479 7.09474 0.774902 6.28949 0.774902C5.48423 0.774902 4.71195 1.09479 4.14255 1.66419C3.57315 2.23359 3.25326 3.00587 3.25326 3.81112C3.25326 4.61638 3.57315 5.38866 4.14255 5.95806C4.71195 6.52746 5.48423 6.84735 6.28949 6.84735V6.84735Z" fill="#4564F3"/>
</svg>
