<svg width="43" height="37" viewBox="0 0 43 37" fill="none" xmlns="http://www.w3.org/2000/svg">
<path d="M28.0625 24.5C29.753 24.5 31.125 25.872 31.125 27.5625V31.066L31.111 31.255C30.5685 34.9773 27.226 36.7658 21.6173 36.7658C16.0295 36.7658 12.6327 34.9982 11.8995 31.3197L11.875 31.0625V27.5625C11.875 25.872 13.247 24.5 14.9375 24.5H28.0625ZM28.927 14H39.4375C41.128 14 42.5 15.372 42.5 17.0625V20.566L42.486 20.755C41.9435 24.4772 38.601 26.2658 32.9922 26.2658L32.6982 26.2622C32.4285 25.3032 31.8679 24.4513 31.0937 23.8242C30.3196 23.197 29.37 22.8254 28.3758 22.7605L28.0625 22.75H26.449C27.3635 22.0126 28.101 21.0797 28.6074 20.0197C29.1137 18.9597 29.376 17.7997 29.375 16.625C29.375 15.7045 29.2175 14.8225 28.927 14ZM3.5625 14H14.073C13.7825 14.8225 13.625 15.7045 13.625 16.625C13.625 18.9525 14.6365 21.0473 16.243 22.4875L16.551 22.75H14.9375C12.729 22.75 10.867 24.2375 10.3 26.2675L10.2422 26.2658C4.6545 26.2658 1.25775 24.4983 0.5245 20.8197L0.5 20.5625V17.0625C0.5 15.372 1.872 14 3.5625 14ZM21.5 10.5C23.1245 10.5 24.6824 11.1453 25.831 12.294C26.9797 13.4426 27.625 15.0005 27.625 16.625C27.625 18.2495 26.9797 19.8074 25.831 20.956C24.6824 22.1047 23.1245 22.75 21.5 22.75C19.8755 22.75 18.3176 22.1047 17.169 20.956C16.0203 19.8074 15.375 18.2495 15.375 16.625C15.375 15.0005 16.0203 13.4426 17.169 12.294C18.3176 11.1453 19.8755 10.5 21.5 10.5ZM32.875 0C34.4995 0 36.0574 0.645311 37.206 1.79397C38.3547 2.94263 39 4.50055 39 6.125C39 7.74945 38.3547 9.30737 37.206 10.456C36.0574 11.6047 34.4995 12.25 32.875 12.25C31.2505 12.25 29.6926 11.6047 28.544 10.456C27.3953 9.30737 26.75 7.74945 26.75 6.125C26.75 4.50055 27.3953 2.94263 28.544 1.79397C29.6926 0.645311 31.2505 0 32.875 0ZM10.125 0C11.7495 0 13.3074 0.645311 14.456 1.79397C15.6047 2.94263 16.25 4.50055 16.25 6.125C16.25 7.74945 15.6047 9.30737 14.456 10.456C13.3074 11.6047 11.7495 12.25 10.125 12.25C8.50055 12.25 6.94263 11.6047 5.79397 10.456C4.64531 9.30737 4 7.74945 4 6.125C4 4.50055 4.64531 2.94263 5.79397 1.79397C6.94263 0.645311 8.50055 0 10.125 0Z" fill="#0061E0"/>
</svg>
