<svg width="12" height="14" viewBox="0 0 12 14" fill="none" xmlns="http://www.w3.org/2000/svg">
<path d="M6.63439 0.600026L11.3436 5.32679C11.5286 5.51183 11.6754 5.73212 11.7757 5.9749C11.8759 6.21768 11.9275 6.47815 11.9275 6.74122C11.9275 7.00429 11.8759 7.26475 11.7757 7.50754C11.6754 7.75032 11.5286 7.9706 11.3436 8.15565L8.06891 11.4435C7.29031 12.2234 6.02992 12.2234 5.25231 11.4435L0.612391 6.78572C0.243219 6.41484 0.0335054 5.91186 0.0286903 5.38579L0.00494671 2.01396C0.00402355 1.74855 0.0551929 1.4856 0.155495 1.24031C0.255795 0.995033 0.403235 0.772296 0.589279 0.584997C0.775324 0.397699 0.996276 0.249559 1.23935 0.149153C1.48242 0.0487479 1.74278 -0.0019291 2.00536 5.61492e-05L5.2345 0.0140555C5.759 0.0158117 6.26179 0.225912 6.63439 0.599026V0.600026ZM2.61972 3.65787C2.76314 3.80162 2.95693 3.88227 3.15891 3.88227C3.36088 3.88227 3.55467 3.80162 3.69809 3.65787C3.76874 3.58704 3.82482 3.50277 3.86308 3.40992C3.90135 3.31707 3.92106 3.21748 3.92106 3.1169C3.92106 3.01632 3.90135 2.91673 3.86308 2.82388C3.82482 2.73103 3.76874 2.64676 3.69809 2.57593C3.55467 2.43218 3.36088 2.35153 3.15891 2.35153C2.95693 2.35153 2.76314 2.43218 2.61972 2.57593C2.32293 2.87591 2.32293 3.35989 2.61972 3.65787ZM11.8748 8.74962C12.0077 9.10911 12.0355 9.49966 11.9548 9.87467C11.8741 10.2497 11.6884 10.5933 11.4197 10.8645L9.47671 12.8284C9.10924 13.1999 8.67299 13.4945 8.19285 13.6955C7.71272 13.8965 7.19811 14 6.67842 14C6.15872 14 5.64411 13.8965 5.16398 13.6955C4.68385 13.4945 4.24759 13.1999 3.88012 12.8284L0.435302 9.34659C0.156921 9.06557 0.000346184 8.68431 0 8.28664V7.50668L3.88012 11.4285C3.94838 11.4975 4.01863 11.5635 4.08986 11.6255L4.57957 12.1214C4.85518 12.4001 5.18239 12.6211 5.54251 12.7719C5.90263 12.9227 6.28862 13.0003 6.67842 13.0003C7.06822 13.0003 7.4542 12.9227 7.81432 12.7719C8.17445 12.6211 8.50166 12.4001 8.77726 12.1214L9.27094 11.6225C9.34174 11.5602 9.41037 11.4955 9.47671 11.4285L11.4197 9.46458C11.6206 9.26212 11.7758 9.01825 11.8748 8.74962Z" fill="#0061E0"/>
</svg>
